<?xml version="1.0" encoding="UTF-8"?>
<svg width="150px" height="93px" viewBox="0 0 150 93" version="1.1" xmlns="http://www.w3.org/2000/svg" xmlns:xlink="http://www.w3.org/1999/xlink">
    <title>Moneturn Logo</title>
    <g stroke="none" stroke-width="1" fill="none" fill-rule="evenodd">
        <g fill-rule="nonzero">
            <path d="M30,46.5 C30,36.835 37.835,29 47.5,29 L102.5,29 C112.165,29 120,36.835 120,46.5 C120,56.165 112.165,64 102.5,64 L47.5,64 C37.835,64 30,56.165 30,46.5 Z" fill="#FA5A4E"></path>
            <path d="M47.5,29 L102.5,29 C112.165,29 120,36.835 120,46.5 C120,56.165 112.165,64 102.5,64 L47.5,64 C37.835,64 30,56.165 30,46.5 C30,36.835 37.835,29 47.5,29 Z M47.5,34 C40.596,34 35,39.596 35,46.5 C35,53.404 40.596,59 47.5,59 L102.5,59 C109.404,59 115,53.404 115,46.5 C115,39.596 109.404,34 102.5,34 L47.5,34 Z" fill="#F8714A"></path>
            <circle fill="#FFFFFF" cx="47.5" cy="46.5" r="7.5"></circle>
            <circle fill="#FFFFFF" cx="75" cy="46.5" r="7.5"></circle>
            <circle fill="#FFFFFF" cx="102.5" cy="46.5" r="7.5"></circle>
        </g>
        <text font-family="Arial-BoldMT, Arial" font-size="18" font-weight="bold" fill="#333333">
            <tspan x="37" y="85">MONETURN</tspan>
        </text>
    </g>
</svg>
